<svg width="28" height="28" viewBox="0 0 28 28" fill="none" xmlns="http://www.w3.org/2000/svg">
<path d="M13.8844 10.8254V7.01586H9.91906V4.47618H13.8844V0.666656H16.5279V4.47618H20.4932V7.01586H16.5279V10.8254H13.8844ZM8.59729 27.3333C7.87032 27.3333 7.24821 27.0849 6.73096 26.5879C6.21282 26.0901 5.95376 25.4921 5.95376 24.7936C5.95376 24.0952 6.21282 23.4971 6.73096 22.9994C7.24821 22.5024 7.87032 22.254 8.59729 22.254C9.32427 22.254 9.94638 22.5024 10.4636 22.9994C10.9818 23.4971 11.2408 24.0952 11.2408 24.7936C11.2408 25.4921 10.9818 26.0901 10.4636 26.5879C9.94638 27.0849 9.32427 27.3333 8.59729 27.3333ZM21.815 27.3333C21.088 27.3333 20.4659 27.0849 19.9486 26.5879C19.4305 26.0901 19.1714 25.4921 19.1714 24.7936C19.1714 24.0952 19.4305 23.4971 19.9486 22.9994C20.4659 22.5024 21.088 22.254 21.815 22.254C22.5419 22.254 23.1645 22.5024 23.6826 22.9994C24.1999 23.4971 24.4585 24.0952 24.4585 24.7936C24.4585 25.4921 24.1999 26.0901 23.6826 26.5879C23.1645 27.0849 22.5419 27.3333 21.815 27.3333ZM8.59729 20.9841C7.60597 20.9841 6.84595 20.5659 6.31725 19.7295C5.78854 18.894 5.77752 18.0635 6.2842 17.2381L8.06859 14.127L3.31022 4.47618H0.666687V1.9365H4.99548L10.613 13.3651H19.8984L25.0203 4.47618L27.3334 5.68253L22.2115 14.5714C21.9692 14.9947 21.6498 15.3227 21.2532 15.5555C20.8567 15.7884 20.4051 15.9048 19.8984 15.9048H10.0512L8.59729 18.4444H24.4585V20.9841H8.59729Z" fill="white"/>
</svg>
