<svg width="21" height="24" viewBox="0 0 21 24" fill="none" xmlns="http://www.w3.org/2000/svg">
<path d="M19.9862 3.70966C19.869 2.99259 19.6403 2.33887 19.3229 1.81361C19.0056 1.28835 18.6106 0.909868 18.1774 0.715862C16.5912 0 10.2082 0 10.2082 0C10.2082 0 3.82499 0.0217241 2.23911 0.737586C1.8059 0.931624 1.41096 1.31012 1.09361 1.83538C0.776266 2.36064 0.547592 3.01434 0.430361 3.73138C-0.0493887 8.39586 -0.235514 15.503 0.443486 19.9806C0.560717 20.6977 0.789391 21.3514 1.10674 21.8766C1.42408 22.4019 1.81902 22.7804 2.25224 22.9744C3.83824 23.6903 10.2214 23.6903 10.2214 23.6903C10.2214 23.6903 16.6045 23.6903 18.1905 22.9744C18.6237 22.7804 19.0186 22.4019 19.336 21.8766C19.6533 21.3514 19.882 20.6977 19.9992 19.9806C20.5051 15.3097 20.6611 8.20697 19.9861 3.70986L19.9862 3.70966Z" fill="#FF0000"/>
<path d="M8.17651 16.9216L13.4718 11.8452L8.17651 6.76855V16.9216Z" fill="white"/>
</svg>
